# xmcd
#
# Track frame offsets: 
#        150
#        15937
#        32445
#        48747
#        65702
#        83257
#        103187
#        120505
#        139347
#        153205
#        172832
#        191372
#        208445
#        229475
#        246950
#        264222
#        281877
#
# Disc length: 4011 seconds
#
# Revision: 2
# Processed by: cddbd v1.5.2PL0 Copyright (c) Steve Scherf et al.
# Submitted via: ExactAudioCopy v1.0b3
#
DISCID=e80fa911
DTITLE=Claudia Jung - Für immer
DYEAR=1999
DGENRE=Pop
TTITLE0=Nur Mit Dir
TTITLE1=Frieden Allezeit
TTITLE2=Ich werd' bei Dir sein
TTITLE3=Endlich Frei
TTITLE4=Hand In Hand
TTITLE5=Wenn Du Mich Beruehrst
TTITLE6=Fuer Immer
TTITLE7=Du Musst Dich Entscheiden
TTITLE8=Wo Die Freiheit Beginnt
TTITLE9=Eine Liebe...
TTITLE10=Du Bist Ein Teil Von Mir
TTITLE11=Mit Dem Ruecken Zur Wand
TTITLE12=Ohne Dich
TTITLE13=Vielleicht Irgendwann
TTITLE14=Wahre Liebe
TTITLE15=Non Lascarmi Mai
TTITLE16=Der Wind Der Meine Fluegel Traegt
EXTD=
EXTT0=
EXTT1=
EXTT2=
EXTT3=
EXTT4=
EXTT5=
EXTT6=
EXTT7=
EXTT8=
EXTT9=
EXTT10=
EXTT11=
EXTT12=
EXTT13=
EXTT14=
EXTT15=
EXTT16=
PLAYORDER=
